<?xml version="1.0" ?><svg enable-background="new 0 0 800 800" id="Layer_1" version="1.1" viewBox="0 0 800 800" xml:space="preserve" xmlns="http://www.w3.org/2000/svg" xmlns:xlink="http://www.w3.org/1999/xlink"><g><path d="M154.7,757.3h480c65.1,0,117.3-52.3,117.3-117.3V160c0-65.1-52.3-117.3-117.3-117.3h-480C89.6,42.7,37.3,94.9,37.3,160v480   C37.3,705.1,89.6,757.3,154.7,757.3z M101.3,160c0-29.9,23.5-53.3,53.3-53.3h480c29.9,0,53.3,23.5,53.3,53.3v480   c0,29.9-23.5,53.3-53.3,53.3h-480c-29.9,0-53.3-23.5-53.3-53.3V160z"/><path d="M269.9,592c5.3,3.2,11.7,5.3,17.1,5.3h215.5c6.4,0,12.8-2.1,17.1-5.3C584.5,549.3,624,477.9,624,400s-39.5-149.3-104.5-192   c-5.3-3.2-11.7-5.3-17.1-5.3H286.9c-6.4,0-12.8,2.1-17.1,5.3c-65.1,42.7-104.5,114.1-104.5,192S204.8,549.3,269.9,592z    M297.6,266.7h195.2c42.7,30.9,68.3,80,68.3,133.3s-25.6,102.4-68.3,133.3H297.6c-42.7-30.9-68.3-80-68.3-133.3   S254.9,297.6,297.6,266.7z"/><path d="M325.3,416c18.1,0,32-13.9,32-32v-53.3c0-18.1-13.9-32-32-32s-32,13.9-32,32V384C293.3,401.1,308.3,416,325.3,416z"/><path d="M464,416c18.1,0,32-13.9,32-32v-53.3c0-18.1-13.9-32-32-32c-18.1,0-32,13.9-32,32V384C432,401.1,446.9,416,464,416z"/><path d="M357.3,501.3H432V464c0-20.3-17.1-37.3-37.3-37.3c-20.3,0-37.3,17.1-37.3,37.3V501.3z"/></g></svg>
